<mxfile host="app.diagrams.net" modified="2022-02-08T08:51:10.305Z" agent="5.0 (Windows NT 6.1; Win64; x64) AppleWebKit/537.36 (KHTML, like Gecko) Chrome/97.0.4692.99 Safari/537.36" etag="RtglpZaZi7uj0ZtyTSbn" version="16.2.6" type="github">
  <diagram id="GGYCWKbRazjykh9vFGDS" name="Page-1">
    <mxGraphModel dx="1341" dy="1963" grid="1" gridSize="10" guides="1" tooltips="1" connect="1" arrows="1" fold="1" page="1" pageScale="1" pageWidth="827" pageHeight="1169" math="0" shadow="0">
      <root>
        <mxCell id="0" />
        <mxCell id="1" parent="0" />
        <mxCell id="G4B4auYITuGabKD5fMpG-1" value="" style="rounded=0;whiteSpace=wrap;html=1;" vertex="1" parent="1">
          <mxGeometry x="80" y="40" width="240" height="60" as="geometry" />
        </mxCell>
        <mxCell id="G4B4auYITuGabKD5fMpG-2" value="定义“必要的”可靠性" style="text;html=1;strokeColor=none;fillColor=none;align=center;verticalAlign=middle;whiteSpace=wrap;rounded=0;fontSize=18;fontStyle=0" vertex="1" parent="1">
          <mxGeometry x="115" y="46.25" width="170" height="47.5" as="geometry" />
        </mxCell>
        <mxCell id="G4B4auYITuGabKD5fMpG-3" value="" style="rounded=0;whiteSpace=wrap;html=1;" vertex="1" parent="1">
          <mxGeometry x="160" y="140" width="240" height="60" as="geometry" />
        </mxCell>
        <mxCell id="G4B4auYITuGabKD5fMpG-4" value="" style="rounded=0;whiteSpace=wrap;html=1;" vertex="1" parent="1">
          <mxGeometry x="240" y="240" width="240" height="60" as="geometry" />
        </mxCell>
        <mxCell id="G4B4auYITuGabKD5fMpG-5" value="&lt;span style=&quot;color: rgba(0 , 0 , 0 , 0) ; font-family: monospace ; font-size: 0px&quot;&gt;%3CmxGraphModel%3E%3Croot%3E%3CmxCell%20id%3D%220%22%2F%3E%3CmxCell%20id%3D%221%22%20parent%3D%220%22%2F%3E%3CmxCell%20id%3D%222%22%20value%3D%22%E5%87%86%E5%A4%87%E6%B5%8B%E8%AF%95%22%20style%3D%22text%3Bhtml%3D1%3BstrokeColor%3Dnone%3BfillColor%3Dnone%3Balign%3Dcenter%3BverticalAlign%3Dmiddle%3BwhiteSpace%3Dwrap%3Brounded%3D0%3BfontSize%3D18%3BfontStyle%3D0%22%20vertex%3D%221%22%20parent%3D%221%22%3E%3CmxGeometry%20x%3D%22270%22%20y%3D%22246.25%22%20width%3D%22170%22%20height%3D%2247.5%22%20as%3D%22geometry%22%2F%3E%3C%2FmxCell%3E%3C%2Froot%3E%3C%2FmxGraphModel%3E&lt;/span&gt;&lt;span style=&quot;color: rgba(0 , 0 , 0 , 0) ; font-family: monospace ; font-size: 0px&quot;&gt;%3CmxGraphModel%3E%3Croot%3E%3CmxCell%20id%3D%220%22%2F%3E%3CmxCell%20id%3D%221%22%20parent%3D%220%22%2F%3E%3CmxCell%20id%3D%222%22%20value%3D%22%E5%87%86%E5%A4%87%E6%B5%8B%E8%AF%95%22%20style%3D%22text%3Bhtml%3D1%3BstrokeColor%3Dnone%3BfillColor%3Dnone%3Balign%3Dcenter%3BverticalAlign%3Dmiddle%3BwhiteSpace%3Dwrap%3Brounded%3D0%3BfontSize%3D18%3BfontStyle%3D0%22%20vertex%3D%221%22%20parent%3D%221%22%3E%3CmxGeometry%20x%3D%22270%22%20y%3D%22246.25%22%20width%3D%22170%22%20height%3D%2247.5%22%20as%3D%22geometry%22%2F%3E%3C%2FmxCell%3E%3C%2Froot%3E%3C%2FmxGraphModel%3E&lt;/span&gt;" style="rounded=0;whiteSpace=wrap;html=1;" vertex="1" parent="1">
          <mxGeometry x="400" y="340" width="240" height="90" as="geometry" />
        </mxCell>
        <mxCell id="G4B4auYITuGabKD5fMpG-7" value="" style="edgeStyle=segmentEdgeStyle;endArrow=classic;html=1;rounded=0;fontSize=18;entryX=0;entryY=0.5;entryDx=0;entryDy=0;exitX=0.175;exitY=1;exitDx=0;exitDy=0;exitPerimeter=0;" edge="1" parent="1" source="G4B4auYITuGabKD5fMpG-3" target="G4B4auYITuGabKD5fMpG-4">
          <mxGeometry width="50" height="50" relative="1" as="geometry">
            <mxPoint x="150" y="310" as="sourcePoint" />
            <mxPoint x="200" y="260" as="targetPoint" />
            <Array as="points">
              <mxPoint x="202" y="270" />
            </Array>
          </mxGeometry>
        </mxCell>
        <mxCell id="G4B4auYITuGabKD5fMpG-11" value="" style="edgeStyle=segmentEdgeStyle;endArrow=classic;html=1;rounded=0;fontSize=18;entryX=0;entryY=0.5;entryDx=0;entryDy=0;exitX=0.167;exitY=1;exitDx=0;exitDy=0;exitPerimeter=0;" edge="1" parent="1" source="G4B4auYITuGabKD5fMpG-1">
          <mxGeometry width="50" height="50" relative="1" as="geometry">
            <mxPoint x="362" y="330" as="sourcePoint" />
            <mxPoint x="400" y="400" as="targetPoint" />
            <Array as="points">
              <mxPoint x="120" y="400" />
            </Array>
          </mxGeometry>
        </mxCell>
        <mxCell id="G4B4auYITuGabKD5fMpG-13" value="" style="edgeStyle=segmentEdgeStyle;endArrow=classic;html=1;rounded=0;fontSize=18;entryX=0;entryY=0.5;entryDx=0;entryDy=0;exitX=0.175;exitY=1;exitDx=0;exitDy=0;exitPerimeter=0;" edge="1" parent="1">
          <mxGeometry width="50" height="50" relative="1" as="geometry">
            <mxPoint x="362" y="300" as="sourcePoint" />
            <mxPoint x="400" y="370" as="targetPoint" />
            <Array as="points">
              <mxPoint x="280" y="300" />
              <mxPoint x="280" y="370" />
            </Array>
          </mxGeometry>
        </mxCell>
        <mxCell id="G4B4auYITuGabKD5fMpG-15" value="" style="endArrow=none;html=1;rounded=0;fontSize=18;entryX=1;entryY=1;entryDx=0;entryDy=0;exitX=0;exitY=0;exitDx=0;exitDy=0;" edge="1" parent="1" source="G4B4auYITuGabKD5fMpG-5" target="G4B4auYITuGabKD5fMpG-5">
          <mxGeometry width="50" height="50" relative="1" as="geometry">
            <mxPoint x="470" y="390" as="sourcePoint" />
            <mxPoint x="520" y="340" as="targetPoint" />
          </mxGeometry>
        </mxCell>
        <mxCell id="G4B4auYITuGabKD5fMpG-16" value="开发运行剖面" style="text;html=1;strokeColor=none;fillColor=none;align=center;verticalAlign=middle;whiteSpace=wrap;rounded=0;fontSize=18;fontStyle=0" vertex="1" parent="1">
          <mxGeometry x="190" y="146.25" width="170" height="47.5" as="geometry" />
        </mxCell>
        <mxCell id="G4B4auYITuGabKD5fMpG-17" value="准备测试" style="text;html=1;strokeColor=none;fillColor=none;align=center;verticalAlign=middle;whiteSpace=wrap;rounded=0;fontSize=18;fontStyle=0" vertex="1" parent="1">
          <mxGeometry x="270" y="246.25" width="170" height="47.5" as="geometry" />
        </mxCell>
        <mxCell id="G4B4auYITuGabKD5fMpG-18" value="执行测试" style="text;html=1;strokeColor=none;fillColor=none;align=center;verticalAlign=middle;whiteSpace=wrap;rounded=0;fontSize=18;fontStyle=0" vertex="1" parent="1">
          <mxGeometry x="370" y="382.5" width="170" height="47.5" as="geometry" />
        </mxCell>
        <mxCell id="G4B4auYITuGabKD5fMpG-19" value="应用失效数据得&lt;br&gt;到结论" style="text;html=1;strokeColor=none;fillColor=none;align=right;verticalAlign=middle;whiteSpace=wrap;rounded=0;fontSize=18;fontStyle=0" vertex="1" parent="1">
          <mxGeometry x="460" y="350" width="170" height="47.5" as="geometry" />
        </mxCell>
        <mxCell id="G4B4auYITuGabKD5fMpG-59" value="" style="shape=table;html=1;whiteSpace=wrap;startSize=0;container=1;collapsible=0;childLayout=tableLayout;fontSize=18;fontStyle=1" vertex="1" parent="1">
          <mxGeometry x="80" y="470" width="560" height="60" as="geometry" />
        </mxCell>
        <mxCell id="G4B4auYITuGabKD5fMpG-60" value="" style="shape=tableRow;horizontal=0;startSize=0;swimlaneHead=0;swimlaneBody=0;top=0;left=0;bottom=0;right=0;collapsible=0;dropTarget=0;fillColor=none;points=[[0,0.5],[1,0.5]];portConstraint=eastwest;fontSize=18;" vertex="1" parent="G4B4auYITuGabKD5fMpG-59">
          <mxGeometry width="560" height="60" as="geometry" />
        </mxCell>
        <mxCell id="G4B4auYITuGabKD5fMpG-61" value="需求与体系结构" style="shape=partialRectangle;html=1;whiteSpace=wrap;connectable=0;fillColor=none;top=0;left=0;bottom=0;right=0;overflow=hidden;fontSize=18;fontStyle=0" vertex="1" parent="G4B4auYITuGabKD5fMpG-60">
          <mxGeometry width="187" height="60" as="geometry">
            <mxRectangle width="187" height="60" as="alternateBounds" />
          </mxGeometry>
        </mxCell>
        <mxCell id="G4B4auYITuGabKD5fMpG-62" value="&lt;span&gt;设计与实现&lt;/span&gt;" style="shape=partialRectangle;html=1;whiteSpace=wrap;connectable=0;fillColor=none;top=0;left=0;bottom=0;right=0;overflow=hidden;fontSize=18;fontStyle=0" vertex="1" parent="G4B4auYITuGabKD5fMpG-60">
          <mxGeometry x="187" width="186" height="60" as="geometry">
            <mxRectangle width="186" height="60" as="alternateBounds" />
          </mxGeometry>
        </mxCell>
        <mxCell id="G4B4auYITuGabKD5fMpG-63" value="&lt;span style=&quot;font-weight: normal&quot;&gt;测试&lt;/span&gt;" style="shape=partialRectangle;html=1;whiteSpace=wrap;connectable=0;fillColor=none;top=0;left=0;bottom=0;right=0;overflow=hidden;fontSize=18;fontStyle=1" vertex="1" parent="G4B4auYITuGabKD5fMpG-60">
          <mxGeometry x="373" width="187" height="60" as="geometry">
            <mxRectangle width="187" height="60" as="alternateBounds" />
          </mxGeometry>
        </mxCell>
        <mxCell id="G4B4auYITuGabKD5fMpG-72" value="1.软件可靠性工程过程框架（Musa）" style="text;html=1;align=center;verticalAlign=middle;resizable=0;points=[];autosize=1;strokeColor=none;fillColor=none;fontSize=18;" vertex="1" parent="1">
          <mxGeometry x="70" y="-20" width="310" height="30" as="geometry" />
        </mxCell>
      </root>
    </mxGraphModel>
  </diagram>
</mxfile>
